# xmcd
#
# Track frame offsets:
#	150
#	9260
#	22412
#	33900
#	42517
#	50422
#	57465
#	66872
#	74050
#	92215
#	96947
#	103625
#	114625
#	127797
#	134732
#	142865
#	151180
#	163152
#	171772
#	180102
#	191272
#	198085
#	208525
#	216067
#
# Disc length: 4157 seconds
#
# Revision: 1
# Processed by: cddbd v1.5.1PL2 Copyright (c) Steve Scherf et al.
# Submitted via: audiograbber 1.83.01
#
DISCID=54103b18
DTITLE=Peter Gelling - Progressive Blues Lead Guitar Method
DYEAR=2000
DGENRE=Other
TTITLE0=Tuning
TTITLE1=Lesson 2 Ex 1-5
TTITLE2=Lesson 3 Ex 6-11
TTITLE3=Lesson 4 Ex 12-16
TTITLE4=Lesson 5 Ex 17-21
TTITLE5=Lesson 6 Ex 22-26
TTITLE6=Lesson 7 Ex 27-32
TTITLE7=Lesson 8 Ex 33-37
TTITLE8=Lesson 9 Ex 38-44
TTITLE9=Lesson 10 Ex 45
TTITLE10=Lesson 11 Ex 46-47
TTITLE11=Lesson 12 Ex 48-52
TTITLE12=Lesson 13 Ex 53-57
TTITLE13=Lesson 14 Ex 59-59
TTITLE14=Lesson 16 Ex 60-65
TTITLE15=Lesson 17 Ex 66-71
TTITLE16=Lesson 18 Ex 72-77
TTITLE17=Lesson 19 Ex 78-82
TTITLE18=Lesson 20 Ex 83-86
TTITLE19=Lesson 23 Ex 87-92
TTITLE20=Lesson 24 Ex 93
TTITLE21=Lesson 25 Ex 94-98
TTITLE22=Lesson 26 Ex 99-100
TTITLE23=Previews
EXTD=Accompanying CD for "Progressive Blues Leadn Guitar Method" book, also by 
EXTD=Peter Gelling - ISBN 1 875726 45 4
EXTT0=
EXTT1=
EXTT2=
EXTT3=
EXTT4=
EXTT5=
EXTT6=
EXTT7=
EXTT8=
EXTT9=
EXTT10=
EXTT11=
EXTT12=
EXTT13=
EXTT14=
EXTT15=
EXTT16=
EXTT17=
EXTT18=
EXTT19=
EXTT20=
EXTT21=
EXTT22=
EXTT23=
PLAYORDER=
